<?xml version="1.0" encoding="utf-8"?>
<!-- Generator: Adobe Illustrator 21.0.0, SVG Export Plug-In . SVG Version: 6.00 Build 0)  -->
<svg version="1.1" id="Слой_1" xmlns="http://www.w3.org/2000/svg" xmlns:xlink="http://www.w3.org/1999/xlink" x="0px" y="0px"
	 viewBox="0 0 24 24" style="enable-background:new 0 0 24 24;" xml:space="preserve">
<g>
	<path d="M18,7H6C5.7,7,5.4,7.1,5.2,7.4S5,7.9,5,8.2l2,12C7.1,20.6,7.5,21,8,21h8c0.5,0,0.9-0.4,1-0.8l2-12c0-0.3,0-0.6-0.2-0.8
		S18.3,7,18,7z M9.4,19C9.3,19,9.3,19,9.4,19c-0.3,0-0.5-0.2-0.6-0.4L7.1,9.7C7,9.4,7.2,9.2,7.5,9.1C7.7,9.1,8,9.2,8,9.5l1.7,8.9
		C9.8,18.7,9.6,18.9,9.4,19z M12.5,18.5c0,0.3-0.2,0.5-0.5,0.5s-0.5-0.2-0.5-0.5v-9C11.5,9.2,11.7,9,12,9s0.5,0.2,0.5,0.5V18.5z
		 M15.2,18.6c0,0.2-0.3,0.4-0.5,0.4c0,0-0.1,0-0.1,0c-0.3-0.1-0.4-0.3-0.4-0.6L16,9.5c0.1-0.3,0.3-0.4,0.6-0.4
		c0.3,0.1,0.4,0.3,0.4,0.6L15.2,18.6z"/>
	<path d="M19.5,5H15c0,0,0,0,0,0V4c0-0.6-0.4-1-1-1h-4C9.4,3,9,3.4,9,4v1c0,0,0,0,0,0H4.5C4.2,5,4,5.3,4,5.5S4.2,6,4.5,6h15
		C19.8,6,20,5.8,20,5.5S19.8,5,19.5,5z M14,5h-4V4h4V5z"/>
</g>
</svg>
