<?xml version="1.0" encoding="utf-8"?>
<!-- Generator: Adobe Illustrator 21.0.0, SVG Export Plug-In . SVG Version: 6.00 Build 0)  -->
<svg version="1.1" id="Слой_1" xmlns="http://www.w3.org/2000/svg" xmlns:xlink="http://www.w3.org/1999/xlink" x="0px" y="0px"
	 viewBox="0 0 24 24" style="enable-background:new 0 0 24 24;" xml:space="preserve">
<g>
	<path d="M18.1,19.3c-1.2,0-2.2-0.9-2.3-2.1l0-0.2H8.1l0,0.2c-0.2,1.2-1.1,2.1-2.3,2.1c-1.2,0-2.2-0.9-2.3-2.1l0-0.2H2.1
		c-0.5,0-0.9-0.4-0.9-0.9V5.6c0-0.5,0.4-0.9,0.9-0.9h17.3l0.2,0.1l0.1,0c0.1,0,0.2,0.1,0.2,0.1C20,5,20.1,5.1,20.2,5.1
		c0.1,0.1,0.1,0.1,0.2,0.2c0.1,0.1,0.2,0.2,0.2,0.3l0.1,0.2C20.9,6,21,6.2,21.1,6.4l0,0.1c1,1.9,1.6,4.5,1.6,4.8v4.8
		c0,0.5-0.4,0.9-0.9,0.9h-1.4l0,0.2C20.3,18.4,19.3,19.3,18.1,19.3z M18.1,15c-1,0-1.9,0.8-1.9,1.9c0,1,0.8,1.9,1.9,1.9
		s1.9-0.8,1.9-1.9C20,15.8,19.2,15,18.1,15z M5.8,15c-1,0-1.9,0.8-1.9,1.9c0,1,0.8,1.9,1.9,1.9c1,0,1.9-0.8,1.9-1.9
		C7.7,15.8,6.8,15,5.8,15z M17.8,6.1c-0.9,0-1.6,0.7-1.6,1.6v2.1c0,0.9,0.7,1.6,1.6,1.6h4.5l0-0.3c-0.1-0.9-1-3.5-1.8-4.9l-0.1-0.1
		H17.8z M10.9,6.1c-0.9,0-1.6,0.7-1.6,1.6v2.1c0,0.9,0.7,1.6,1.6,1.6h3c0.9,0,1.6-0.7,1.6-1.6V7.7c0-0.9-0.7-1.6-1.6-1.6H10.9z
		 M4.1,6.1c-0.9,0-1.6,0.7-1.6,1.6v2.1c0,0.9,0.7,1.6,1.6,1.6h3c0.9,0,1.6-0.7,1.6-1.6V7.7c0-0.9-0.7-1.6-1.6-1.6H4.1z"/>
	<path d="M19.4,5C19.4,5,19.4,5,19.4,5c0.1,0,0.1,0,0.1,0l0.1,0c0,0,0,0,0,0c0.1,0,0.1,0.1,0.2,0.1c0.1,0.1,0.2,0.1,0.2,0.2
		c0.1,0.1,0.1,0.1,0.2,0.2c0.1,0.1,0.2,0.2,0.2,0.3l0.1,0.1c0,0,0,0,0,0h-0.3h-2.4c-1,0-1.8,0.8-1.8,1.8v2.1c0,1,0.8,1.8,1.8,1.8H22
		h0.5v2v2.4c0,0.4-0.3,0.6-0.6,0.6h-1.1h-0.4l0,0.1c0-1.1-1-2.1-2.1-2.1c-1.2,0-2.1,0.9-2.1,2.1l0-0.1h-0.4H8.4H7.9l0,0.1
		c0-1.1-1-2.1-2.1-2.1c-1.2,0-2.1,0.9-2.1,2.1l0-0.1H3.2H2.1c-0.4,0-0.6-0.3-0.6-0.6V5.6C1.5,5.3,1.8,5,2.1,5H19.4 M10.9,11.7h3
		c1,0,1.8-0.8,1.8-1.8V7.7c0-1-0.8-1.8-1.8-1.8h-3c-1,0-1.8,0.8-1.8,1.8v2.1C9.1,10.8,9.9,11.7,10.9,11.7 M4.1,11.7h3
		c1,0,1.8-0.8,1.8-1.8V7.7c0-1-0.8-1.8-1.8-1.8h-3c-1,0-1.8,0.8-1.8,1.8v2.1C2.2,10.8,3,11.7,4.1,11.7 M22.5,11.1c0,0.1,0,0.1,0,0.2
		v0L22.5,11.1C22.5,11.1,22.5,11.1,22.5,11.1 M4.5,18.5C4.8,18.8,5.3,19,5.8,19c0.5,0,1-0.2,1.3-0.5C6.7,18.8,6.3,19,5.8,19
		C5.3,19,4.8,18.8,4.5,18.5 M16.8,18.5c0.4,0.3,0.8,0.5,1.3,0.5c0.5,0,1-0.2,1.3-0.5c-0.4,0.3-0.8,0.5-1.3,0.5
		C17.6,19,17.2,18.8,16.8,18.5 M19.4,4.5H2.1C1.5,4.5,1,5,1,5.6v10.5c0,0.6,0.5,1.1,1.1,1.1h1.1c0.2,1.3,1.2,2.3,2.6,2.3
		c1.3,0,2.4-1,2.6-2.3h7.2c0.2,1.3,1.2,2.3,2.6,2.3c1.3,0,2.4-1,2.6-2.3h1.1c0.6,0,1.1-0.5,1.1-1.1v-2.4v-2.4c0-0.4-0.7-3-1.7-4.9h0
		c0,0,0,0,0-0.1c-0.1-0.2-0.2-0.4-0.4-0.6c0-0.1-0.1-0.1-0.1-0.2c-0.1-0.1-0.2-0.2-0.3-0.3C20.5,5.1,20.4,5,20.4,5
		c-0.1-0.1-0.2-0.2-0.3-0.2c-0.1-0.1-0.2-0.1-0.3-0.1c0,0-0.1,0-0.1-0.1v0C19.6,4.5,19.5,4.5,19.4,4.5L19.4,4.5z M17.8,11.2
		c-0.7,0-1.3-0.6-1.3-1.3V7.7c0-0.7,0.6-1.3,1.3-1.3h2.4c0.8,1.3,1.7,3.9,1.8,4.8H17.8L17.8,11.2z M10.9,11.2
		c-0.7,0-1.3-0.6-1.3-1.3V7.7c0-0.7,0.6-1.3,1.3-1.3h3c0.7,0,1.3,0.6,1.3,1.3v2.1c0,0.7-0.6,1.3-1.3,1.3H10.9L10.9,11.2z M4.1,11.2
		c-0.7,0-1.3-0.6-1.3-1.3V7.7c0-0.7,0.6-1.3,1.3-1.3h3c0.7,0,1.3,0.6,1.3,1.3v2.1c0,0.7-0.6,1.3-1.3,1.3H4.1L4.1,11.2z M18.1,18.5
		c-0.9,0-1.6-0.7-1.6-1.6c0-0.9,0.7-1.6,1.6-1.6c0.9,0,1.6,0.7,1.6,1.6C19.8,17.8,19,18.5,18.1,18.5L18.1,18.5z M5.8,18.5
		c-0.9,0-1.6-0.7-1.6-1.6c0-0.9,0.7-1.6,1.6-1.6c0.9,0,1.6,0.7,1.6,1.6C7.4,17.8,6.7,18.5,5.8,18.5L5.8,18.5z"/>
</g>
</svg>
