<?xml version="1.0" encoding="utf-8"?>
<!-- Generator: Adobe Illustrator 21.0.0, SVG Export Plug-In . SVG Version: 6.00 Build 0)  -->
<svg version="1.1" id="Слой_1" xmlns="http://www.w3.org/2000/svg" xmlns:xlink="http://www.w3.org/1999/xlink" x="0px" y="0px"
	 viewBox="0 0 24 24" style="enable-background:new 0 0 24 24;" xml:space="preserve">
<path d="M20.3,10c-0.1-0.3-0.4-0.5-0.7-0.6l-4.8-0.7l-2.1-4.3c-0.3-0.6-1.2-0.6-1.5,0L9.1,8.8L4.3,9.5C4,9.5,3.8,9.7,3.7,10
	c-0.1,0.3,0,0.6,0.2,0.9l3.5,3.4L6.5,19c-0.1,0.3,0.1,0.6,0.3,0.8c0.3,0.2,0.6,0.2,0.9,0.1l4.3-2.2l4.3,2.2c0.1,0.1,0.3,0.1,0.4,0.1
	c0.2,0,0.3-0.1,0.5-0.2c0.3-0.2,0.4-0.5,0.3-0.8l-0.8-4.8l3.5-3.4C20.4,10.7,20.4,10.3,20.3,10z"/>
</svg>
