<?xml version="1.0" encoding="utf-8"?>
<!-- Generator: Adobe Illustrator 21.0.0, SVG Export Plug-In . SVG Version: 6.00 Build 0)  -->
<svg version="1.1" id="Слой_1" xmlns="http://www.w3.org/2000/svg" xmlns:xlink="http://www.w3.org/1999/xlink" x="0px" y="0px"
	 viewBox="0 0 24 24" style="enable-background:new 0 0 24 24;" xml:space="preserve">
<g>
	<path d="M10,13H4c-0.6,0-1,0.4-1,1v6c0,0.6,0.4,1,1,1h6c0.6,0,1-0.4,1-1v-6C11,13.4,10.6,13,10,13z"/>
	<path d="M20,13h-6c-0.6,0-1,0.4-1,1v6c0,0.6,0.4,1,1,1h6c0.6,0,1-0.4,1-1v-6C21,13.4,20.6,13,20,13z"/>
	<path d="M9,11h6c0.6,0,1-0.4,1-1V4c0-0.6-0.4-1-1-1H9C8.4,3,8,3.4,8,4v6C8,10.6,8.4,11,9,11z"/>
</g>
</svg>
