<?xml version="1.0" encoding="utf-8"?>
<!-- Generator: Adobe Illustrator 21.0.0, SVG Export Plug-In . SVG Version: 6.00 Build 0)  -->
<svg version="1.1" id="Слой_1" xmlns="http://www.w3.org/2000/svg" xmlns:xlink="http://www.w3.org/1999/xlink" x="0px" y="0px"
	 viewBox="0 0 24 24" style="enable-background:new 0 0 24 24;" xml:space="preserve">
<g>
	<path d="M10,19.8c-0.4,0-0.8-0.3-0.8-0.8v-4.2H5c-0.4,0-0.7-0.3-0.7-0.8v-4c0-0.4,0.3-0.7,0.7-0.7h4.3V5c0-0.4,0.3-0.8,0.8-0.8h4
		c0.4,0,0.8,0.3,0.8,0.8v4.3H19c0.4,0,0.8,0.3,0.8,0.7v4c0,0.4-0.3,0.8-0.8,0.8h-4.3V19c0,0.4-0.3,0.8-0.8,0.8H10z"/>
	<path d="M14,4.5c0.3,0,0.5,0.2,0.5,0.5v4v0.5H15h4c0.3,0,0.5,0.2,0.5,0.5v4c0,0.3-0.2,0.5-0.5,0.5h-4h-0.5V15v4
		c0,0.3-0.2,0.5-0.5,0.5h-4c-0.3,0-0.5-0.2-0.5-0.5v-4v-0.5H9H5c-0.3,0-0.5-0.2-0.5-0.5v-4c0-0.3,0.2-0.5,0.5-0.5h4h0.5V9V5
		c0-0.3,0.2-0.5,0.5-0.5H14 M14,4h-4C9.4,4,9,4.4,9,5v4H5c-0.6,0-1,0.4-1,1v4c0,0.6,0.4,1,1,1h4v4c0,0.6,0.4,1,1,1h4
		c0.6,0,1-0.4,1-1v-4h4c0.6,0,1-0.4,1-1v-4c0-0.6-0.4-1-1-1h-4V5C15,4.4,14.6,4,14,4L14,4z"/>
</g>
</svg>
