<?xml version="1.0" encoding="utf-8"?>
<!-- Generator: Adobe Illustrator 21.0.0, SVG Export Plug-In . SVG Version: 6.00 Build 0)  -->
<svg version="1.1" id="Слой_1" xmlns="http://www.w3.org/2000/svg" xmlns:xlink="http://www.w3.org/1999/xlink" x="0px" y="0px"
	 viewBox="0 0 24 24" style="enable-background:new 0 0 24 24;" xml:space="preserve">
<g>
	<path d="M21,20H3c-0.6,0-1-0.4-1-1v-2c0-0.6,0.4-1,1-1h18c0.6,0,1,0.4,1,1v2C22,19.6,21.6,20,21,20z"/>
	<path d="M21,14H3c-0.6,0-1-0.4-1-1v-2c0-0.6,0.4-1,1-1h18c0.6,0,1,0.4,1,1v2C22,13.6,21.6,14,21,14z"/>
	<path d="M21,8H3C2.4,8,2,7.6,2,7V5c0-0.6,0.4-1,1-1h18c0.6,0,1,0.4,1,1v2C22,7.6,21.6,8,21,8z"/>
</g>
</svg>
