<?xml version="1.0" encoding="utf-8"?>
<!-- Generator: Adobe Illustrator 21.0.0, SVG Export Plug-In . SVG Version: 6.00 Build 0)  -->
<svg version="1.1" id="Слой_1" xmlns="http://www.w3.org/2000/svg" xmlns:xlink="http://www.w3.org/1999/xlink" x="0px" y="0px"
	 viewBox="0 0 24 24" style="enable-background:new 0 0 24 24;" xml:space="preserve">
<g>
	<path d="M13.1,13.3l8.5-8.5c-0.3-0.2-0.7-0.3-1.1-0.3h-17c-0.4,0-0.7,0.1-1,0.3l8.5,8.5C11.5,13.8,12.5,13.8,13.1,13.3z"/>
	<path d="M1.8,5.5c-0.1,0.1-0.3,0.3-0.3,1v11c0,0.3,0.1,0.6,0.2,0.8l6.5-6.5L1.8,5.5z"/>
	<path d="M22.2,5.5l-6.4,6.4l6.4,6.4c0.1-0.3,0.2-0.6,0.2-0.9v-11C22.5,5.8,22.3,5.6,22.2,5.5z"/>
	<path d="M13.8,14c-0.5,0.5-1.1,0.7-1.8,0.7c-0.7,0-1.3-0.3-1.8-0.7l-1.4-1.4l-6.5,6.5c0.3,0.2,0.7,0.4,1.2,0.4h17
		c0.4,0,0.8-0.1,1.2-0.4l-6.5-6.5L13.8,14z"/>
</g>
</svg>
