<?xml version="1.0" encoding="utf-8"?>
<!-- Generator: Adobe Illustrator 21.0.0, SVG Export Plug-In . SVG Version: 6.00 Build 0)  -->
<svg version="1.1" id="Слой_1" xmlns="http://www.w3.org/2000/svg" xmlns:xlink="http://www.w3.org/1999/xlink" x="0px" y="0px"
	 viewBox="0 0 24 24" style="enable-background:new 0 0 24 24;" xml:space="preserve">
<g>
	<path d="M21,7.5h-4v-2c0-1.1-0.9-2-2-2H9c-1.1,0-2,0.9-2,2v2H3c-0.6,0-1,0.4-1,1v5h8v-1c0-0.6,0.4-1,1-1h2c0.6,0,1,0.4,1,1v1h8v-5
		C22,7.9,21.6,7.5,21,7.5z M9,5.5h6v2H9V5.5z"/>
	<path d="M14,15.5c0,0.6-0.4,1-1,1h-2c-0.6,0-1-0.4-1-1v-1H2v5c0,0.6,0.4,1,1,1h18c0.6,0,1-0.4,1-1v-5h-8V15.5z"/>
</g>
</svg>
