<?xml version="1.0" encoding="utf-8"?>
<!-- Generator: Adobe Illustrator 21.0.0, SVG Export Plug-In . SVG Version: 6.00 Build 0)  -->
<svg version="1.1" id="Слой_1" xmlns="http://www.w3.org/2000/svg" xmlns:xlink="http://www.w3.org/1999/xlink" x="0px" y="0px"
	 viewBox="0 0 24 24" style="enable-background:new 0 0 24 24;" xml:space="preserve">
<g>
	<path d="M16,17.8c-0.4,0-0.8-0.3-0.8-0.8v-3.7H8.8V17c0,0.4-0.3,0.8-0.8,0.8H7c-0.4,0-0.8-0.3-0.8-0.8v-1.3H5
		c-0.4,0-0.8-0.3-0.8-0.8V9c0-0.4,0.3-0.8,0.8-0.8h1.3V7c0-0.4,0.3-0.8,0.8-0.8h1c0.4,0,0.8,0.3,0.8,0.8v3.8h6.5V7
		c0-0.4,0.3-0.8,0.8-0.8h1c0.4,0,0.8,0.3,0.8,0.8v1.3H19c0.4,0,0.8,0.3,0.8,0.8v6c0,0.4-0.3,0.8-0.8,0.8h-1.3V17
		c0,0.4-0.3,0.8-0.8,0.8H16z"/>
	<path d="M17,6.5c0.3,0,0.5,0.2,0.5,0.5l0,1l0,0.5H18h1c0.3,0,0.5,0.2,0.5,0.5v6c0,0.3-0.2,0.5-0.5,0.5h-1h-0.5V16v1
		c0,0.3-0.2,0.5-0.5,0.5h-1c-0.3,0-0.5-0.2-0.5-0.5v-3.4v-0.5H15H9H8.5v0.5V17c0,0.3-0.2,0.5-0.5,0.5H7c-0.3,0-0.5-0.2-0.5-0.5v-1
		v-0.5H6H5c-0.3,0-0.5-0.2-0.5-0.5V9c0-0.3,0.2-0.5,0.5-0.5h1h0.5V8V7c0-0.3,0.2-0.5,0.5-0.5h1c0.3,0,0.5,0.2,0.5,0.5v3.6v0.5H9h6
		h0.5v-0.5V7c0-0.3,0.2-0.5,0.5-0.5H17 M17,6h-1c-0.6,0-1,0.4-1,1v3.6H9V7c0-0.6-0.4-1-1-1H7C6.4,6,6,6.4,6,7v1H5C4.4,8,4,8.4,4,9v6
		c0,0.6,0.4,1,1,1h1v1c0,0.6,0.4,1,1,1h1c0.6,0,1-0.4,1-1v-3.4h6V17c0,0.6,0.4,1,1,1h1c0.6,0,1-0.4,1-1v-1c0,0,0,0,0,0h1
		c0.6,0,1-0.4,1-1V9c0-0.6-0.4-1-1-1h-1c0,0,0,0,0,0V7C18,6.4,17.6,6,17,6L17,6z"/>
</g>
</svg>
